<?xml version="1.0" standalone="no"?>
<!DOCTYPE svg PUBLIC "-//W3C//DTD SVG 20010904//EN"
 "http://www.w3.org/TR/2001/REC-SVG-20010904/DTD/svg10.dtd">
<svg version="1.0" xmlns="http://www.w3.org/2000/svg"
 width="1024.000000pt" height="1024.000000pt" viewBox="0 0 1024.000000 1024.000000"
 preserveAspectRatio="xMidYMid meet">
<metadata>
Created by potrace 1.16, written by Peter Selinger 2001-2019
</metadata>
<g transform="translate(0.000000,1024.000000) scale(0.100000,-0.100000)"
fill="#000000" stroke="none">
<path d="M187 10052 c-147 -147 -188 -194 -185 -211 2 -18 40 15 213 189 175
175 206 210 185 210 -19 0 -69 -44 -213 -188z"/>
<path d="M287 9952 c-227 -227 -288 -294 -285 -311 2 -17 59 35 313 289 255
255 305 310 285 310 -20 0 -89 -64 -313 -288z"/>
<path d="M387 9852 c-307 -307 -388 -393 -385 -411 2 -17 79 55 413 389 335
335 405 410 385 410 -20 0 -109 -84 -413 -388z"/>
<path d="M487 9752 c-388 -388 -488 -493 -485 -511 2 -17 99 74 513 489 415
415 505 510 485 510 -20 0 -129 -104 -513 -488z"/>
<path d="M587 9652 c-468 -468 -588 -593 -585 -611 2 -17 118 94 613 589 495
495 605 610 585 610 -20 0 -149 -124 -613 -588z"/>
<path d="M687 9552 c-548 -548 -688 -693 -685 -711 2 -17 138 114 713 689 575
575 705 710 685 710 -20 0 -169 -144 -713 -688z"/>
<path d="M787 9452 c-629 -629 -788 -793 -785 -811 2 -17 158 133 813 789 655
655 805 810 785 810 -20 0 -189 -164 -813 -788z"/>
<path d="M887 9352 c-709 -709 -888 -893 -885 -911 2 -17 177 153 913 889 735
735 905 910 885 910 -20 0 -209 -184 -913 -888z"/>
<path d="M987 9252 c-789 -789 -988 -993 -985 -1011 2 -17 197 173 1013 989
815 815 1005 1010 985 1010 -20 0 -229 -204 -1013 -988z"/>
<path d="M1087 9152 c-870 -870 -1088 -1093 -1085 -1111 2 -17 217 193 1113
1089 895 895 1105 1110 1085 1110 -20 0 -249 -224 -1113 -1088z"/>
<path d="M1187 9052 c-950 -950 -1188 -1193 -1185 -1211 2 -17 237 212 1213
1189 975 975 1205 1210 1185 1210 -20 0 -269 -244 -1213 -1188z"/>
<path d="M1287 8952 c-1030 -1030 -1288 -1293 -1285 -1311 2 -17 256 232 1313
1289 1055 1055 1305 1310 1285 1310 -20 0 -289 -264 -1313 -1288z"/>
<path d="M1387 8852 c-1110 -1110 -1388 -1393 -1385 -1411 2 -17 276 252 1413
1389 1135 1135 1405 1410 1385 1410 -20 0 -309 -284 -1413 -1388z"/>
<path d="M1487 8752 c-1191 -1191 -1488 -1493 -1485 -1511 2 -17 296 271 1513
1489 1215 1215 1505 1510 1485 1510 -20 0 -329 -304 -1513 -1488z"/>
<path d="M1587 8652 c-1271 -1271 -1588 -1593 -1585 -1611 2 -17 315 291 1613
1589 1295 1295 1605 1610 1585 1610 -20 0 -349 -324 -1613 -1588z"/>
<path d="M1687 8552 c-1351 -1351 -1688 -1693 -1685 -1711 2 -17 335 311 1713
1689 1375 1375 1705 1710 1685 1710 -20 0 -369 -344 -1713 -1688z"/>
<path d="M1787 8452 c-1432 -1432 -1788 -1793 -1785 -1811 2 -17 355 330 1813
1789 1455 1455 1805 1810 1785 1810 -20 0 -389 -364 -1813 -1788z"/>
<path d="M1887 8352 c-1512 -1512 -1888 -1893 -1885 -1911 2 -17 374 350 1913
1889 1535 1535 1905 1910 1885 1910 -20 0 -409 -384 -1913 -1888z"/>
<path d="M1987 8252 c-1592 -1592 -1988 -1993 -1985 -2011 2 -17 394 370 2013
1989 1615 1615 2005 2010 1985 2010 -20 0 -429 -404 -2013 -1988z"/>
<path d="M2087 8152 c-1673 -1673 -2088 -2093 -2085 -2111 2 -17 414 390 2113
2089 1695 1695 2105 2110 2085 2110 -20 0 -449 -424 -2113 -2088z"/>
<path d="M2187 8052 c-1753 -1753 -2188 -2193 -2185 -2211 2 -17 433 409 2213
2189 1775 1775 2205 2210 2185 2210 -20 0 -469 -444 -2213 -2188z"/>
<path d="M2287 7952 c-1833 -1833 -2288 -2293 -2285 -2311 2 -17 453 429 2313
2289 1855 1855 2305 2310 2285 2310 -20 0 -489 -464 -2313 -2288z"/>
<path d="M2387 7852 c-1914 -1914 -2388 -2393 -2385 -2411 2 -17 473 449 2413
2389 1935 1935 2405 2410 2385 2410 -20 0 -509 -484 -2413 -2388z"/>
<path d="M2487 7752 c-1994 -1994 -2488 -2493 -2485 -2511 2 -17 493 468 2513
2489 2015 2015 2505 2510 2485 2510 -20 0 -529 -504 -2513 -2488z"/>
<path d="M2587 7652 c-2074 -2074 -2588 -2593 -2585 -2611 2 -17 512 488 2613
2589 2095 2095 2605 2610 2585 2610 -20 0 -549 -524 -2613 -2588z"/>
<path d="M2687 7552 c-2154 -2154 -2688 -2693 -2685 -2711 2 -17 532 508 2713
2689 2175 2175 2705 2710 2685 2710 -20 0 -569 -544 -2713 -2688z"/>
<path d="M4645 9309 c-842 -843 -940 -937 -1040 -1006 -295 -203 -556 -438
-776 -698 -82 -97 -228 -292 -274 -365 -16 -25 -423 -440 -904 -922 l-876
-878 -69 0 -70 0 34 -35 34 -35 -352 -353 c-274 -274 -352 -358 -352 -377 0
-20 67 42 365 340 l365 365 37 -38 38 -37 -403 -403 c-314 -314 -402 -408
-402 -427 0 -20 77 52 415 390 l415 415 37 -38 38 -37 -453 -453 c-354 -354
-452 -457 -452 -477 0 -20 87 62 465 440 l465 465 37 -38 38 -37 -503 -503
c-394 -394 -502 -507 -502 -527 0 -20 97 72 515 490 l515 515 37 -38 38 -37
-553 -553 c-434 -434 -552 -557 -552 -577 0 -20 107 82 565 540 l565 565 37
-38 38 -37 -603 -603 c-474 -474 -602 -607 -602 -627 0 -20 117 92 615 590
l615 615 37 -38 38 -37 -653 -653 c-514 -514 -652 -657 -652 -677 0 -20 127
102 665 640 l665 665 37 -38 38 -37 -703 -703 c-554 -554 -702 -707 -702 -727
0 -20 137 112 715 690 l715 715 37 -38 38 -37 -753 -753 c-594 -594 -752 -757
-752 -777 0 -20 147 122 765 740 l765 765 37 -38 38 -37 -803 -803 c-634 -634
-802 -807 -802 -827 0 -20 157 132 815 790 l815 815 37 -38 38 -37 -853 -853
c-674 -674 -852 -857 -852 -877 0 -20 167 142 865 840 l865 865 37 -38 38 -37
-903 -903 c-714 -714 -902 -907 -902 -927 0 -20 177 152 915 890 l915 915 37
-38 38 -37 -953 -953 c-754 -754 -952 -957 -952 -977 0 -20 187 162 965 940
l965 965 37 -38 38 -37 -1003 -1003 c-794 -794 -1002 -1007 -1002 -1027 0 -20
197 172 1015 990 l1015 1015 37 -38 38 -37 -1053 -1053 c-834 -834 -1052
-1057 -1052 -1077 0 -20 207 182 1065 1040 l1065 1065 37 -38 38 -37 -1103
-1103 c-874 -874 -1102 -1107 -1102 -1127 0 -20 217 192 1113 1088 611 611
1117 1112 1122 1112 13 0 1607 1594 1601 1601 -3 3 357 367 799 809 l805 805
0 -75 0 -75 -2720 -2720 c-2169 -2169 -2720 -2725 -2720 -2745 0 -20 537 512
2720 2695 l2720 2720 0 -75 0 -75 -2720 -2720 c-2169 -2169 -2720 -2725 -2720
-2745 0 -20 537 512 2720 2695 l2720 2720 0 -75 0 -75 -2720 -2720 c-2169
-2169 -2720 -2725 -2720 -2745 0 -20 537 512 2720 2695 l2720 2720 0 -75 0
-75 -2720 -2720 c-2169 -2169 -2720 -2725 -2720 -2745 0 -20 537 512 2720
2695 l2720 2720 0 -75 0 -75 -2720 -2720 c-2169 -2169 -2720 -2725 -2720
-2745 0 -20 537 512 2720 2695 l2720 2720 0 -75 0 -75 -2720 -2720 c-2169
-2169 -2720 -2725 -2720 -2745 0 -20 537 512 2720 2695 l2720 2720 0 -75 0
-75 -2720 -2720 c-2169 -2169 -2720 -2725 -2720 -2745 0 -20 537 512 2720
2695 l2720 2720 0 -75 0 -75 -2720 -2720 c-2169 -2169 -2720 -2725 -2720
-2745 0 -20 537 512 2720 2695 l2720 2720 0 -75 0 -75 -2652 -2652 c-2128
-2128 -2648 -2653 -2628 -2653 20 0 439 414 2057 2032 l2033 2033 37 -38 38
-37 -1995 -1995 c-1602 -1602 -1990 -1995 -1970 -1995 20 0 429 404 2007 1982
l1983 1983 37 -38 38 -37 -1945 -1945 c-1562 -1562 -1940 -1945 -1920 -1945
20 0 419 394 1957 1932 l1933 1933 37 -38 38 -37 -487 -487 -487 -487 -26 24
-26 24 -229 -229 -230 -230 25 -25 25 -25 -1177 -1177 c-949 -949 -1173 -1178
-1153 -1178 20 0 265 240 1190 1165 l1165 1165 38 -37 37 -38 -1127 -1127
c-908 -908 -1123 -1128 -1103 -1128 20 0 256 231 1141 1116 l1117 1117 41 -34
40 -34 -1082 -1083 c-871 -871 -1077 -1082 -1057 -1082 20 0 246 222 1095
1070 l1071 1071 42 -33 42 -33 -1037 -1037 c-836 -836 -1033 -1038 -1013
-1038 20 0 238 213 1052 1027 l1027 1026 38 -28 c21 -16 40 -30 43 -32 2 -2
-443 -451 -990 -998 -803 -803 -990 -995 -970 -995 20 0 229 204 1009 984
l985 985 44 -31 44 -31 -953 -953 c-769 -769 -949 -954 -929 -954 20 0 221
196 970 945 l945 945 40 -26 c22 -15 42 -29 45 -31 2 -2 -407 -415 -910 -918
-738 -738 -910 -915 -890 -915 20 0 214 189 931 906 l906 906 48 -27 47 -28
-879 -879 c-709 -709 -873 -878 -853 -878 20 0 206 181 894 869 l870 870 49
-26 50 -25 -844 -844 c-681 -681 -839 -844 -819 -844 20 0 200 175 860 835
l836 836 51 -23 52 -23 -812 -812 c-656 -657 -807 -813 -787 -813 20 0 192
167 829 804 l804 804 46 -20 c25 -10 48 -21 50 -24 3 -3 -346 -356 -774 -784
-630 -630 -775 -780 -755 -780 20 0 188 163 800 774 l775 774 53 -21 54 -20
-754 -754 c-608 -608 -748 -753 -728 -753 20 0 182 157 772 747 l746 746 57
-18 57 -18 -728 -728 c-589 -589 -724 -729 -704 -729 20 0 177 152 747 722
l721 721 49 -13 c26 -7 52 -15 57 -18 4 -2 -308 -321 -695 -708 -569 -569
-699 -704 -679 -704 20 0 173 148 726 701 l701 701 44 -12 c24 -6 51 -13 59
-16 9 -3 -223 -242 -670 -689 -554 -554 -680 -685 -660 -685 20 0 169 144 706
681 l681 681 62 -13 63 -12 -668 -668 c-542 -542 -664 -669 -644 -669 20 0
165 140 690 665 664 664 665 665 700 659 19 -3 48 -8 64 -11 27 -5 -3 -37
-625 -659 -530 -530 -649 -654 -629 -654 20 0 162 137 675 650 706 706 652
659 749 643 l38 -6 -643 -643 c-521 -521 -639 -644 -619 -644 20 0 162 137
670 643 l645 643 69 -4 69 -4 -639 -639 c-518 -518 -634 -639 -614 -639 20 0
160 135 665 640 l640 640 75 0 75 0 -640 -640 c-519 -519 -635 -640 -615 -640
20 0 160 135 665 640 l640 640 75 0 75 0 -640 -640 c-518 -518 -635 -640 -615
-640 20 0 162 137 670 644 l645 645 80 6 80 7 -650 -651 c-525 -526 -645 -651
-625 -651 19 0 166 141 685 659 l660 659 60 6 c32 4 71 9 85 12 17 4 -196
-215 -645 -665 -542 -543 -665 -671 -645 -671 20 0 168 143 702 677 l677 677
96 21 97 22 -699 -699 c-564 -564 -693 -698 -673 -698 20 0 175 150 735 709
l710 710 90 27 c50 14 97 29 105 32 8 2 -318 -329 -725 -737 -598 -599 -735
-741 -715 -741 20 0 184 159 781 756 l756 755 128 54 129 54 -809 -809 c-655
-655 -805 -810 -785 -810 20 0 198 173 855 830 l830 831 105 56 c58 31 134 74
170 95 55 33 -75 -101 -860 -886 -747 -748 -920 -926 -900 -926 20 0 225 200
990 966 852 852 980 977 1097 1064 308 231 572 495 803 803 85 114 189 223
744 777 510 509 646 650 646 670 0 20 -114 -89 -606 -580 -523 -523 -600 -596
-566 -540 21 36 64 112 95 170 l56 105 511 510 c401 401 510 515 510 535 0 20
-91 -66 -490 -465 l-489 -489 54 129 54 128 435 436 c341 341 436 441 436 461
0 20 -78 -53 -421 -395 -232 -231 -419 -413 -417 -405 3 8 18 56 32 105 l27
90 390 390 c303 304 389 396 389 415 0 20 -70 -45 -378 -353 l-379 -379 22 97
21 96 357 357 c278 278 357 363 357 382 0 20 -64 -39 -350 -325 -192 -192
-350 -348 -350 -345 0 3 7 43 15 90 l15 85 335 335 c260 261 335 341 335 360
0 20 -60 -35 -331 -305 l-330 -330 6 80 7 80 324 325 c251 252 324 331 324
350 0 20 -58 -33 -320 -295 l-320 -320 0 75 0 75 320 320 c249 249 320 325
320 345 0 20 -57 -32 -320 -295 l-320 -320 0 75 0 75 320 320 c249 249 320
325 320 345 0 20 -57 -32 -319 -294 l-319 -319 -4 72 -3 71 323 323 c251 251
322 327 322 347 0 20 -58 -33 -324 -299 l-324 -324 -7 68 -8 67 332 332 c257
257 331 337 331 356 0 20 -61 -36 -334 -309 l-333 -333 -12 63 -11 64 345 345
c269 269 345 351 345 370 0 20 -64 -39 -349 -324 l-348 -348 -12 63 -13 62
361 361 c281 281 361 367 361 386 0 20 -67 -42 -364 -339 l-364 -364 -12 44
c-6 24 -13 51 -16 59 -2 10 134 153 376 395 297 297 380 385 380 405 0 20 -70
-45 -384 -359 -211 -211 -386 -379 -388 -375 -3 5 -11 31 -18 57 l-13 49 401
401 c314 314 402 408 402 427 0 20 -76 -51 -408 -383 l-408 -408 -18 57 -18
57 426 426 c333 333 426 432 426 451 0 20 -81 -56 -433 -408 l-434 -434 -20
54 -21 53 454 455 c355 356 454 460 454 480 0 20 -86 -61 -460 -435 -252 -252
-461 -457 -464 -454 -3 2 -14 25 -24 50 l-20 46 484 484 c381 380 484 489 484
509 0 20 -92 -67 -492 -467 l-493 -492 -23 52 -23 51 516 516 c404 405 515
520 515 540 0 20 -99 -74 -524 -499 l-523 -523 -27 48 -27 48 551 551 c432
432 550 555 550 575 0 20 -106 -81 -559 -534 l-559 -559 -27 48 -28 47 586
586 c462 462 587 592 587 612 0 20 -113 -88 -595 -570 -361 -361 -598 -591
-603 -585 -5 6 -18 26 -30 45 l-21 36 624 624 c493 493 625 630 625 650 0 20
-120 -95 -635 -610 -349 -349 -636 -632 -638 -630 -2 3 -16 23 -31 45 l-26 40
665 665 c525 525 665 670 665 690 0 20 -129 -104 -673 -648 -369 -369 -675
-672 -678 -672 -4 0 -19 18 -34 41 l-29 40 707 707 c558 558 707 712 707 732
0 20 -138 -113 -718 -693 l-718 -718 -33 42 -34 41 752 752 c593 593 751 756
751 776 0 20 -147 -122 -763 -738 l-764 -764 -33 42 -33 42 796 796 c630 630
797 802 797 822 0 20 -156 -131 -809 -784 l-808 -808 -36 38 -36 39 844 845
c669 668 845 850 845 870 0 20 -166 -141 -858 -833 l-857 -857 -38 37 -37 38
895 895 c709 709 895 900 895 920 0 20 -175 -150 -908 -883 l-907 -907 -38 37
-37 38 945 945 c749 749 945 950 945 970 0 20 -185 -160 -959 -934 l-959 -959
-41 34 -40 34 999 1000 c793 792 1000 1005 1000 1025 0 20 -197 -172 -1012
-987 l-1013 -1013 -42 33 -42 32 1047 1048 c844 844 1042 1047 1022 1047 -20
0 -240 -215 -1062 -1037 l-1036 -1036 -42 33 -42 33 1004 1004 c809 809 998
1003 978 1003 -20 0 -230 -205 -1015 -990 -544 -544 -993 -990 -998 -990 -4 0
-26 12 -48 27 l-40 27 963 963 c777 777 958 963 938 963 -20 0 -222 -197 -975
-950 -522 -522 -953 -950 -958 -950 -4 0 -26 12 -48 27 l-40 27 923 923 c745
745 918 923 898 923 -20 0 -214 -189 -939 -914 l-913 -913 -44 24 c-24 14 -44
28 -44 31 0 4 397 404 882 889 712 712 878 883 858 883 -20 0 -208 -183 -902
-877 l-877 -877 -43 23 c-24 13 -45 26 -48 28 -2 2 378 386 845 853 686 686
845 850 825 850 -20 0 -201 -176 -867 -842 l-842 -842 -51 24 -51 24 818 818
c660 660 813 818 793 818 -20 0 -194 -169 -835 -810 l-810 -810 -53 22 -53 22
788 788 c636 636 783 788 763 788 -20 0 -189 -164 -805 -780 l-781 -781 -53
22 -53 22 759 759 c612 612 753 758 733 758 -20 0 -183 -158 -777 -752 l-752
-752 -56 19 -56 19 733 733 c592 592 728 733 708 733 -20 0 -178 -153 -751
-726 l-726 -726 -58 17 -58 17 709 709 c573 573 704 709 684 709 -20 0 -174
-148 -730 -705 l-705 -704 -58 16 -58 17 688 688 c556 556 683 688 663 688
-20 0 -170 -145 -710 -684 l-685 -685 -55 11 c-30 6 -57 13 -60 15 -2 2 297
305 665 673 542 542 665 670 645 670 -20 0 -166 -141 -691 -666 l-666 -666
-62 7 c-33 4 -61 10 -61 13 0 4 294 301 652 659 529 529 648 653 628 653 -20
0 -163 -138 -679 -654 l-655 -655 -50 6 c-28 2 -58 7 -66 9 -9 3 217 236 630
649 522 522 640 645 620 645 -20 0 -161 -136 -670 -645 l-645 -645 -68 7 -69
6 639 639 c517 517 633 638 613 638 -20 0 -160 -135 -665 -640 l-640 -640 -75
0 -75 0 640 640 c519 519 635 640 615 640 -20 0 -160 -135 -665 -640 l-640
-640 -75 0 -75 0 640 640 c517 517 635 640 615 640 -19 0 -162 -138 -670 -645
l-645 -645 -46 0 c-26 0 -62 -3 -80 -6 -29 -5 53 81 616 645 527 528 645 651
625 651 -20 0 -162 -137 -679 -654 l-653 -654 -52 -6 c-29 -3 -68 -9 -87 -12
-30 -6 49 77 631 660 538 539 660 666 640 666 -20 0 -168 -143 -700 -674
l-675 -673 -80 -17 c-44 -9 -85 -16 -90 -16 -6 0 301 311 680 690 559 559 685
690 665 690 -20 0 -172 -147 -725 -700 l-700 -700 -85 -26 c-47 -14 -94 -28
-105 -31 -11 -3 308 324 710 726 591 592 725 731 705 731 -20 0 -182 -157
-775 -750 -412 -412 -754 -750 -760 -750 -5 0 -59 -20 -119 -44 l-109 -44 794
794 c642 642 789 794 769 794 -20 0 -196 -171 -845 -820 -451 -451 -824 -820
-830 -820 -5 0 -73 -34 -150 -75 l-140 -75 895 895 c723 723 890 895 870 895
-20 0 -218 -193 -955 -931z m1180 -999 c13 0 -447 -467 -1415 -1435 l-1435
-1435 -75 0 -75 0 1435 1435 c789 789 1443 1436 1455 1439 11 2 36 2 55 0 19
-2 44 -4 55 -4z m-1615 -1435 l-1435 -1435 -75 0 -75 0 1425 1426 c784 784
1434 1429 1445 1434 11 5 49 9 85 9 l65 1 -1435 -1435z m1805 1429 c13 -5
-321 -345 -1411 -1435 l-1429 -1429 -75 0 -75 0 1435 1435 1435 1435 52 0 c28
0 59 -3 68 -6z m-2005 -1429 c-783 -783 -1425 -1423 -1426 -1422 -1 1 2 39 8
83 l10 81 1332 1331 1331 1331 70 9 c39 5 77 10 85 11 8 0 -626 -640 -1410
-1424z m2190 1409 c9 -3 -496 -515 -1405 -1424 l-1420 -1420 -75 0 -75 0 1430
1430 1430 1430 50 -6 c27 -3 57 -8 65 -10z m180 -31 c2 -2 -196 -204 -440
-448 -371 -371 -449 -445 -472 -445 -24 0 -28 -4 -28 -27 0 -24 -148 -176
-932 -960 l-933 -933 -75 0 -75 0 1418 1418 1419 1419 56 -10 c31 -5 59 -11
62 -14z m-2470 -1278 c-706 -706 -1286 -1282 -1289 -1280 -2 3 4 42 13 88 l18
84 1181 1181 1182 1180 65 15 c36 9 76 16 90 16 20 1 -250 -274 -1260 -1284z
m2591 1254 l52 -11 -429 -429 -429 -429 -75 0 -75 0 440 440 c242 242 445 440
452 440 7 0 35 -5 64 -11z m-1561 -22 c0 -1 -511 -513 -1135 -1137 l-1135
-1135 19 65 c10 36 24 84 31 106 11 36 156 184 1014 1042 l1001 1001 100 30
c116 35 105 32 105 28z m1714 -19 c22 -6 43 -13 46 -15 2 -2 -178 -186 -400
-408 l-405 -405 -75 0 -75 0 420 420 c231 231 426 420 434 420 7 0 32 -5 55
-12z m142 -44 c27 -9 51 -19 54 -21 2 -2 -168 -176 -378 -386 l-382 -382 -71
3 -72 4 399 399 c219 219 399 399 400 399 0 0 23 -7 50 -16z m-2156 -37 c0 -1
-423 -425 -940 -942 l-941 -940 42 100 c22 55 49 116 59 135 10 19 360 376
777 793 l759 758 114 49 c105 46 130 55 130 47z m2357 -41 c1 -1 -205 -209
-457 -461 l-460 -460 0 75 0 75 407 407 406 406 51 -20 c28 -11 52 -21 53 -22z
m88 -38 c25 -12 45 -24 45 -28 0 -3 -236 -241 -525 -530 l-525 -525 0 75 0 75
477 477 c263 263 479 478 480 478 1 0 23 -10 48 -22z m-408 -686 l-592 -592
-3 72 -3 72 547 547 548 548 48 -27 48 -27 -593 -593z m-2397 605 c0 -1 -304
-306 -676 -677 l-677 -675 43 80 c117 219 139 246 549 658 408 411 443 440
657 561 97 55 104 59 104 53z m2462 -740 l-657 -657 -3 72 -3 72 612 612 612
612 48 -26 48 -27 -657 -658z m739 606 l40 -27 -718 -718 -718 -718 -3 72 -3
72 673 673 c370 370 676 673 681 673 4 0 26 -12 48 -27z m121 -81 l37 -28
-780 -780 -779 -779 0 75 0 75 732 732 c403 403 737 733 743 733 5 0 27 -13
47 -28z m112 -84 l37 -33 -836 -835 -835 -835 0 75 0 75 792 792 c436 436 796
793 799 793 3 0 22 -15 43 -32z m111 -90 l36 -33 -891 -890 -890 -890 0 75 0
75 847 847 c467 467 851 848 856 848 4 0 23 -15 42 -32z m105 -93 l34 -36
-939 -939 -940 -940 -3 72 -3 72 903 903 c497 497 905 903 909 903 3 0 20 -16
39 -35z m100 -100 l34 -36 -989 -989 -990 -990 -3 72 -3 72 953 953 c524 524
955 953 959 953 3 0 20 -16 39 -35z m100 -101 l32 -37 -1039 -1039 -1038
-1038 -3 72 -3 72 1003 1003 c552 552 1006 1003 1009 1003 4 0 21 -16 39 -36z
m-3522 -991 l-833 -833 -75 0 -75 0 905 905 905 905 3 -72 3 -72 -833 -833z
m3642 847 c0 -3 -1009 -1014 -2243 -2248 l-2243 -2243 -42 33 -42 33 484 484
485 485 31 -29 31 -29 684 684 685 685 0 60 0 60 1053 1053 1052 1053 32 -38
c18 -21 33 -40 33 -43z m59 -72 l31 -43 -2231 -2231 -2232 -2232 -43 31 -43
32 2242 2243 c1233 1233 2243 2242 2244 2242 1 0 15 -19 32 -42z m-5956 -155
l-76 -148 -651 -652 -651 -653 -75 0 -75 0 800 800 c440 440 801 800 802 800
1 0 -33 -66 -74 -147z m6042 36 l27 -42 -2213 -2213 -2213 -2213 -25 15 c-14
9 -35 22 -46 30 -18 14 104 138 2205 2239 1224 1224 2228 2225 2231 2225 4 0
19 -19 34 -41z m79 -121 l26 -43 -2192 -2192 -2191 -2191 -41 25 c-23 14 -43
28 -46 30 -5 5 4402 4413 4412 4413 4 0 18 -19 32 -42z m72 -124 l27 -46
-2164 -2164 -2165 -2165 -48 27 -48 27 2183 2183 c1201 1201 2185 2184 2186
2184 1 0 14 -21 29 -46z m-6332 -81 c-9 -21 -29 -74 -46 -118 l-29 -80 -482
-482 -482 -483 -75 0 -75 0 600 600 c330 330 601 600 603 600 1 0 -5 -17 -14
-37z m6407 -55 l21 -41 -2133 -2133 -2133 -2133 -49 26 -50 25 2153 2153
c1185 1185 2158 2152 2162 2149 5 -3 18 -24 29 -46z m-2012 -2274 l-2094
-2094 -53 22 -53 22 2123 2123 2123 2124 24 -52 23 -52 -2093 -2093z m2135
1988 l14 -39 -2051 -2051 -2052 -2050 -53 21 -54 20 2083 2083 c1551 1551
2086 2080 2092 2069 4 -8 14 -32 21 -53z m-6667 -44 l-29 -103 -337 -337 -336
-338 -75 0 -75 0 440 440 c242 242 440 440 441 440 1 0 -12 -46 -29 -102z
m6716 -90 l17 -53 -2002 -2002 -2001 -2001 -41 14 c-23 8 -48 17 -56 20 -9 3
673 692 2020 2039 1119 1119 2038 2035 2041 2035 3 0 13 -24 22 -52z m-6785
-183 l-20 -90 -207 -207 -206 -208 -75 0 -75 0 300 300 c164 164 300 298 301
297 1 -1 -7 -42 -18 -92z m6832 24 l13 -51 -1946 -1946 -1945 -1945 -49 13
c-26 7 -52 15 -57 18 -4 2 884 897 1975 1988 1090 1090 1986 1981 1990 1978 4
-2 13 -27 19 -55z m39 -155 l13 -57 -1884 -1884 -1884 -1884 -54 12 c-30 6
-57 13 -60 16 -5 4 3841 3853 3851 3853 3 0 12 -25 18 -56z m-6917 -111 l-14
-88 -86 -87 -87 -88 -75 0 -75 0 175 175 c96 96 175 175 176 175 0 0 -6 -39
-14 -87z m6949 -58 l11 -58 -1814 -1814 -1813 -1814 -35 6 c-19 3 -48 8 -64
11 -27 6 63 98 1835 1870 1025 1025 1864 1862 1866 1860 2 -1 8 -29 14 -61z
m28 -210 c1 -27 -183 -214 -1732 -1763 l-1734 -1734 -68 7 -67 8 1793 1793
1794 1794 7 -37 c4 -21 7 -52 7 -68z m-1631 -1862 l-1643 -1643 -75 0 -75 0
1715 1715 1715 1715 3 -72 3 -72 -1643 -1643z m101 -99 l-1541 -1541 -61 -6
c-33 -3 -66 -3 -74 0 -10 4 503 524 1598 1620 l1614 1613 3 -72 3 -72 -1542
-1542z m1537 1403 l-7 -73 -1432 -1432 -1432 -1431 -80 -7 -80 -6 1515 1516
c833 833 1516 1513 1518 1511 3 -2 1 -37 -2 -78z m-26 -225 l-12 -79 -1301
-1301 -1302 -1300 -66 -11 c-36 -6 -74 -11 -85 -11 -12 0 480 499 1376 1395
767 767 1396 1392 1398 1390 3 -2 -1 -40 -8 -83z m-36 -204 c-8 -35 -19 -79
-24 -98 -14 -50 -2290 -2325 -2335 -2333 -16 -3 -59 -13 -95 -21 l-64 -15
1264 1264 c696 696 1266 1265 1267 1265 0 0 -5 -28 -13 -62z m-84 -314 l-32
-99 -959 -961 -960 -960 -82 -26 c-45 -15 -93 -29 -107 -33 -15 -4 399 418
1070 1089 602 602 1096 1094 1097 1092 2 -2 -10 -48 -27 -102z m-79 -216 c-5
-13 -30 -70 -56 -128 l-46 -105 -711 -711 -710 -711 -96 -43 c-54 -24 -113
-49 -132 -57 -25 -10 225 245 860 881 492 493 896 896 897 896 1 0 -1 -10 -6
-22z m-4131 -193 l34 -36 -484 -484 -485 -485 -40 35 -40 34 485 485 c267 267
487 486 490 486 4 0 21 -16 40 -35z m3938 -202 c-143 -248 -255 -386 -540
-669 -244 -241 -317 -303 -493 -417 -201 -129 -204 -132 435 507 338 339 616
616 617 616 1 0 -7 -17 -19 -37z"/>
<path d="M8185 2050 c-1647 -1647 -2045 -2050 -2025 -2050 37 0 4083 4047
4078 4079 -2 17 -402 -378 -2053 -2029z"/>
<path d="M8285 1950 c-1567 -1567 -1945 -1950 -1925 -1950 37 0 3883 3847
3878 3879 -2 17 -382 -358 -1953 -1929z"/>
<path d="M8385 1850 c-1487 -1487 -1845 -1850 -1825 -1850 37 0 3683 3647
3678 3679 -2 17 -363 -338 -1853 -1829z"/>
<path d="M8485 1750 c-1407 -1407 -1745 -1750 -1725 -1750 37 0 3483 3447
3478 3479 -2 17 -343 -319 -1753 -1729z"/>
<path d="M8585 1650 c-1327 -1327 -1645 -1650 -1625 -1650 37 0 3283 3247
3278 3279 -2 17 -323 -299 -1653 -1629z"/>
<path d="M8685 1550 c-1247 -1247 -1545 -1550 -1525 -1550 37 0 3083 3047
3078 3079 -2 17 -303 -279 -1553 -1529z"/>
<path d="M8785 1450 c-1167 -1167 -1445 -1450 -1425 -1450 37 0 2883 2847
2878 2879 -2 17 -284 -260 -1453 -1429z"/>
<path d="M8885 1350 c-1087 -1087 -1345 -1350 -1325 -1350 37 0 2683 2647
2678 2679 -2 17 -264 -240 -1353 -1329z"/>
<path d="M8985 1250 c-1007 -1007 -1245 -1250 -1225 -1250 37 0 2483 2447
2478 2479 -2 17 -244 -220 -1253 -1229z"/>
<path d="M9085 1150 c-927 -927 -1145 -1150 -1125 -1150 37 0 2283 2247 2278
2279 -2 17 -225 -200 -1153 -1129z"/>
<path d="M9185 1050 c-847 -847 -1045 -1050 -1025 -1050 37 0 2083 2047 2078
2079 -2 17 -205 -181 -1053 -1029z"/>
<path d="M9285 950 c-767 -767 -945 -950 -925 -950 37 0 1883 1847 1878 1879
-2 17 -185 -161 -953 -929z"/>
<path d="M9385 850 c-687 -687 -845 -850 -825 -850 37 0 1683 1647 1678 1679
-2 17 -166 -141 -853 -829z"/>
<path d="M9485 750 c-607 -607 -745 -750 -725 -750 37 0 1483 1447 1478 1479
-2 17 -146 -122 -753 -729z"/>
<path d="M9585 650 c-527 -527 -645 -650 -625 -650 37 0 1283 1247 1278 1279
-2 17 -126 -102 -653 -629z"/>
<path d="M9685 550 c-447 -447 -545 -550 -525 -550 37 0 1083 1047 1078 1079
-2 17 -107 -82 -553 -529z"/>
<path d="M9785 450 c-367 -367 -445 -450 -425 -450 37 0 883 847 878 879 -2
17 -87 -63 -453 -429z"/>
<path d="M9885 350 c-287 -287 -345 -350 -325 -350 37 0 683 647 678 679 -2
17 -67 -43 -353 -329z"/>
<path d="M9985 250 c-207 -207 -246 -250 -225 -250 37 0 483 447 478 479 -2
18 -47 -23 -253 -229z"/>
</g>
</svg>
