<?xml version="1.0" standalone="no"?>
<!DOCTYPE svg PUBLIC "-//W3C//DTD SVG 20010904//EN"
 "http://www.w3.org/TR/2001/REC-SVG-20010904/DTD/svg10.dtd">
<svg version="1.0" xmlns="http://www.w3.org/2000/svg"
 width="1024.000000pt" height="1024.000000pt" viewBox="0 0 1024.000000 1024.000000"
 preserveAspectRatio="xMidYMid meet">

<g transform="translate(0.000000,1024.000000) scale(0.100000,-0.100000)"
fill="#000000" stroke="none">
<path d="M5525 8953 c-271 -22 -469 -52 -690 -107 -273 -67 -508 -154 -775
-287 -401 -200 -694 -411 -1015 -733 -501 -501 -848 -1120 -1015 -1806 -35
-147 -76 -381 -86 -497 l-7 -83 -644 -2 -645 -3 796 -796 796 -796 796 796
796 796 -626 3 -626 2 0 26 c0 46 30 235 57 354 127 572 408 1095 818 1518
518 536 1161 858 1913 959 177 24 607 24 784 0 601 -81 1111 -293 1588 -661
133 -103 412 -379 519 -515 374 -473 593 -992 677 -1606 25 -183 25 -607 0
-790 -84 -613 -304 -1135 -677 -1606 -106 -134 -364 -392 -498 -498 -471 -373
-994 -594 -1606 -677 -163 -22 -588 -26 -745 -6 -384 49 -712 145 -1046 306
-299 145 -510 289 -776 528 -47 43 -90 78 -95 78 -13 0 -446 -437 -442 -447 2
-5 47 -49 100 -99 500 -468 1146 -801 1830 -943 278 -57 453 -75 769 -75 298
-1 405 7 655 49 1379 231 2545 1229 2994 2562 86 255 150 550 182 833 18 152
18 630 1 780 -44 380 -144 773 -279 1088 -615 1446 -2021 2376 -3567 2360 -94
-1 -189 -3 -211 -5z"/>
<path d="M5440 6307 l0 -1052 -590 -590 c-324 -324 -590 -593 -590 -596 0 -8
441 -449 449 -449 3 0 313 307 689 683 l682 682 0 1188 0 1187 -320 0 -320 0
0 -1053z"/>
</g>
</svg>
