<?xml version="1.0" standalone="no"?>
<!DOCTYPE svg PUBLIC "-//W3C//DTD SVG 20010904//EN"
 "http://www.w3.org/TR/2001/REC-SVG-20010904/DTD/svg10.dtd">
<svg version="1.0" xmlns="http://www.w3.org/2000/svg"
 width="920.000000pt" height="920.000000pt" viewBox="0 0 920.000000 920.000000"
 preserveAspectRatio="xMidYMid meet">

<g transform="translate(0.000000,920.000000) scale(0.100000,-0.100000)"
fill="#000000" stroke="none">
<path d="M3920 7775 l-675 -675 203 -202 202 -203 330 330 330 330 0 -803 0
-802 290 0 290 0 0 802 0 803 330 -330 330 -330 202 203 203 202 -675 675
c-371 371 -677 675 -680 675 -3 0 -309 -304 -680 -675z"/>
<path d="M1420 5275 l-675 -675 678 -677 677 -678 202 203 203 202 -330 330
-330 330 948 0 947 0 0 290 0 290 -947 0 -948 0 330 330 330 330 -200 200
c-110 110 -202 200 -205 200 -3 0 -309 -304 -680 -675z"/>
<path d="M6895 5750 l-200 -200 330 -330 330 -330 -948 0 -947 0 0 -290 0
-290 947 0 948 0 -330 -330 -330 -330 203 -202 202 -203 677 678 678 677 -675
675 c-371 371 -677 675 -680 675 -3 0 -95 -90 -205 -200z"/>
<path d="M4310 2793 l0 -948 -330 330 -330 330 -202 -203 -203 -202 678 -678
677 -677 677 677 678 678 -203 202 -202 203 -330 -330 -330 -330 0 948 0 947
-290 0 -290 0 0 -947z"/>
</g>
</svg>
