<svg id="Слой_1" data-name="Слой 1" xmlns="http://www.w3.org/2000/svg" viewBox="0 0 150 190"><defs><style>.cls-1{fill-rule:evenodd;}</style></defs><title>Монтажная область 16</title><path class="cls-1" d="M98.73,147.42c-3.16,0-45-.35-47.46-.35-6.94,0-9.06-3.43-9.06-8.71v-3.62l65.58,1.18v3.33C107.79,144.34,105.63,147.42,98.73,147.42ZM42.21,118l65.58-1.19v12L42.21,129Zm0-12.71c0-4.75,2.31-8.17,7.92-8.77,0-6.91.08-14.46.09-15.91,0-29.7,49.38-27.16,49.35-.71,0,1.84.05,9.3.11,16.19,6.52.35,8.11,4.73,8.11,9.6v5.24l-65.58-.15ZM88,96.09C88,89.44,88,83,88,82c0-14.31-26.12-15.68-26.14.38,0,.72,0,7.23,0,13.89Z"/></svg>