<?xml version="1.0" standalone="no"?>
<!DOCTYPE svg PUBLIC "-//W3C//DTD SVG 20010904//EN"
 "http://www.w3.org/TR/2001/REC-SVG-20010904/DTD/svg10.dtd">
<svg version="1.0" xmlns="http://www.w3.org/2000/svg"
 width="980.000000pt" height="640.000000pt" viewBox="0 0 980.000000 640.000000"
 preserveAspectRatio="xMidYMid meet">

<g transform="translate(0.000000,640.000000) scale(0.100000,-0.100000)"
fill="#000000" stroke="none">
<path d="M5105 6378 c-2 -7 -301 -1437 -665 -3178 -363 -1741 -663 -3171 -665
-3178 -4 -10 89 -12 457 -10 l462 3 662 3170 c365 1744 663 3178 664 3188 0
16 -28 17 -455 17 -356 0 -457 -3 -460 -12z"/>
<path d="M1222 4427 l-1222 -1222 1228 -1228 1227 -1227 610 0 610 0 -1225
1225 -1225 1225 1225 1225 1225 1225 -615 0 -615 0 -1223 -1223z"/>
<path d="M7350 4425 l1225 -1225 -1225 -1225 -1225 -1225 610 0 610 0 1227
1227 1228 1228 -1222 1222 -1223 1223 -615 0 -615 0 1225 -1225z"/>
</g>
</svg>
