<?xml version="1.0" standalone="no"?>
<!DOCTYPE svg PUBLIC "-//W3C//DTD SVG 20010904//EN"
 "http://www.w3.org/TR/2001/REC-SVG-20010904/DTD/svg10.dtd">
<svg version="1.0" xmlns="http://www.w3.org/2000/svg"
 width="980.000000pt" height="904.000000pt" viewBox="0 0 980.000000 904.000000"
 preserveAspectRatio="xMidYMid meet">

<g transform="translate(0.000000,904.000000) scale(0.100000,-0.100000)"
fill="#000000" stroke="none">
<path d="M3600 9019 c-305 -24 -581 -69 -865 -139 -860 -212 -1599 -637 -2089
-1200 -343 -394 -548 -822 -623 -1300 -22 -140 -24 -508 -5 -675 70 -593 299
-1155 648 -1595 87 -109 314 -337 424 -424 104 -82 277 -199 385 -258 l80 -44
-2 -77 c-6 -250 -153 -633 -429 -1112 -95 -166 -114 -224 -95 -291 25 -94 103
-159 201 -171 186 -22 719 187 1175 461 352 212 745 497 950 690 l69 65 66
-10 c102 -17 664 -23 888 -10 990 59 1843 357 2493 872 132 104 347 315 454
444 339 412 532 851 611 1390 26 173 26 586 1 745 -71 451 -247 847 -543 1220
-98 124 -401 422 -534 524 -673 519 -1524 826 -2485 896 -163 12 -622 11 -775
-1z m900 -624 c693 -76 1296 -282 1798 -614 561 -371 924 -877 1024 -1429 28
-155 30 -434 4 -602 -51 -334 -169 -639 -354 -916 -458 -684 -1289 -1144
-2302 -1273 -323 -42 -779 -51 -1030 -21 -47 6 -172 17 -279 25 l-194 14 -51
-42 c-190 -156 -306 -255 -408 -349 -109 -99 -280 -241 -424 -350 -71 -55
-326 -229 -329 -225 -2 1 17 63 42 137 48 147 116 399 132 495 11 62 41 410
41 477 l0 37 -187 95 c-341 173 -464 258 -669 461 -77 77 -172 183 -211 235
-281 379 -444 828 -484 1325 -37 479 90 897 394 1300 81 107 278 308 402 410
486 401 1143 674 1884 785 114 16 203 26 421 44 109 9 644 -4 780 -19z"/>
<path d="M2251 6335 c-163 -46 -275 -169 -303 -334 -30 -177 64 -355 229 -434
64 -30 75 -32 178 -32 104 0 114 2 176 32 81 40 160 121 197 200 37 82 43 223
13 304 -62 164 -196 265 -366 275 -44 2 -90 -2 -124 -11z"/>
<path d="M3980 6334 c-250 -67 -376 -346 -261 -579 38 -76 120 -156 198 -193
52 -24 69 -27 168 -27 102 0 115 2 176 31 162 77 261 262 231 433 -44 246
-276 398 -512 335z"/>
<path d="M5712 6334 c-112 -30 -210 -113 -264 -222 -26 -52 -33 -80 -36 -146
-9 -180 76 -324 237 -403 51 -26 66 -28 171 -28 107 0 119 2 175 29 167 82
264 277 226 454 -49 231 -284 377 -509 316z"/>
<path d="M8660 5477 c0 -74 -62 -360 -116 -530 -13 -43 -24 -83 -24 -90 1 -7
33 -34 73 -62 107 -74 313 -283 382 -388 163 -248 237 -595 205 -967 -25 -298
-100 -520 -251 -740 -174 -255 -421 -449 -844 -662 -121 -61 -222 -112 -223
-114 -12 -9 48 -826 67 -930 5 -24 6 -44 4 -44 -9 0 -171 127 -271 214 -194
168 -367 356 -508 551 l-20 29 -185 -29 c-168 -26 -212 -29 -499 -33 -421 -5
-679 17 -978 84 -373 83 -776 269 -1052 483 l-55 42 -427 -3 c-235 -2 -430 -7
-434 -10 -18 -18 253 -293 426 -433 501 -404 1112 -652 1836 -745 304 -39 861
-50 1064 -20 l66 9 144 -142 c232 -228 465 -416 742 -597 382 -252 779 -391
915 -321 77 39 123 130 104 208 -5 21 -29 82 -55 135 -122 258 -257 765 -272
1023 -3 50 -7 102 -9 117 -4 25 3 31 83 74 406 221 742 521 942 843 147 237
240 497 287 801 25 162 24 557 -1 725 -96 637 -397 1095 -967 1472 -69 46
-131 83 -138 83 -6 0 -11 -15 -11 -33z"/>
</g>
</svg>
