<svg id="Слой_1" data-name="Слой 1" xmlns="http://www.w3.org/2000/svg" viewBox="0 0 150 190"><defs><style>.cls-1{fill-rule:evenodd;}</style></defs><title>Монтажная область 17</title><path class="cls-1" d="M121.21,98.75s-.08-16.51-.08-17.1c0-14.31-24.06-15.68-24.08.38,0,.79,0,7.63,0,14h1.84c7.23,0,9,4.55,9,9.62v5.24l-65.58-.15v-5.49c0-5.24,2.81-8.87,9.79-8.87l33.33-.26c0-6.31.09-14.12.09-15.72,0-29.71,47.33-27.17,47.3-.71,0,3.63.22,19.14.22,19.14Zm-13.42,30L42.21,129V118l65.58-1.19Zm0,10.54c0,5.09-2.16,8.17-9.06,8.17-3.16,0-45-.35-47.46-.35-6.94,0-9.06-3.43-9.06-8.71v-3.62l65.58,1.18Z"/></svg>