<?xml version="1.0" standalone="no"?>
<!DOCTYPE svg PUBLIC "-//W3C//DTD SVG 20010904//EN"
 "http://www.w3.org/TR/2001/REC-SVG-20010904/DTD/svg10.dtd">
<svg version="1.0" xmlns="http://www.w3.org/2000/svg"
 width="5120.000000pt" height="5120.000000pt" viewBox="0 0 5120.000000 5120.000000"
 preserveAspectRatio="xMidYMid meet">

<g transform="translate(0.000000,5120.000000) scale(0.100000,-0.100000)"
fill="#000000" stroke="none">
<path d="M9565 41630 l-3470 -3470 6280 -6280 6280 -6280 -6280 -6280 -6280
-6280 3473 -3472 3472 -3473 6280 6280 6280 6280 6280 -6280 6280 -6280 3472
3473 3473 3472 -6280 6280 -6280 6280 6280 6280 6280 6280 -3473 3472 -3472
3473 -6280 -6280 -6280 -6280 -6278 6278 c-3452 3452 -6279 6277 -6282 6277
-3 0 -1567 -1562 -3475 -3470z"/>
</g>
</svg>
